HIERARCHY
ROOT Hips
{
	OFFSET -3.958830 18.904000 13.208200
	CHANNELS 6 Xposition Yposition Zposition Zrotation Yrotation Xrotation 
	JOINT LHipJoint
	{
		OFFSET 0.000000 0.000000 0.000000
		CHANNELS 3 Zrotation Yrotation Xrotation
		JOINT LeftUpLeg
		{
			OFFSET 1.800000 -1.400000 0.085000
			CHANNELS 3 Zrotation Yrotation Xrotation
			JOINT LeftLeg
			{
				OFFSET 2.215000 -6.000000 0.000000
				CHANNELS 3 Zrotation Yrotation Xrotation
				JOINT LeftFoot
				{
					OFFSET 2.500000 -6.900000 0.000000
					CHANNELS 3 Zrotation Yrotation Xrotation
					JOINT LeftToeBase
					{
						OFFSET 0.200000 -0.500000 1.950000
						CHANNELS 3 Zrotation Yrotation Xrotation
						End Site
						{
							OFFSET 0.000000 0.000000 0.000000
						}
					}
				}
			}
		}
	}
	JOINT RHipJoint
	{
		OFFSET 0.000000 0.000000 0.000000
		CHANNELS 3 Zrotation Yrotation Xrotation
		JOINT RightUpLeg
		{
			OFFSET -1.800000 -1.400000 0.085000
			CHANNELS 3 Zrotation Yrotation Xrotation
			JOINT RightLeg
			{
				OFFSET -2.215000 -6.000000 0.000000
				CHANNELS 3 Zrotation Yrotation Xrotation
				JOINT RightFoot
				{
					OFFSET -2.500000 -6.900000 0.000000
					CHANNELS 3 Zrotation Yrotation Xrotation
					JOINT RightToeBase
					{
						OFFSET -0.200000 -0.500000 1.950000
						CHANNELS 3 Zrotation Yrotation Xrotation
						End Site
						{
							OFFSET 0.000000 0.000000 0.000000
						}
					}
				}
			}
		}
	}
	JOINT LowerBack
	{
		OFFSET 0.000000 0.000000 0.000000
		CHANNELS 3 Zrotation Yrotation Xrotation
		JOINT Spine
		{
			OFFSET -0.087000 1.940000 -0.288900
			CHANNELS 3 Zrotation Yrotation Xrotation
			JOINT Spine1
			{
				OFFSET 0.000000 1.950000 0.060000
				CHANNELS 3 Zrotation Yrotation Xrotation
				JOINT Neck
				{
					OFFSET 0.000000 0.000000 0.000000
					CHANNELS 3 Zrotation Yrotation Xrotation
					JOINT Neck1
					{
						OFFSET 0.000000 1.600000 0.340000
						CHANNELS 3 Zrotation Yrotation Xrotation
						JOINT Head
						{
							OFFSET 0.000000 1.667000 -0.240000
							CHANNELS 3 Zrotation Yrotation Xrotation
							End Site
							{
								OFFSET 0.000000 0.000000 0.000000
							}
						}
					}
				}
				JOINT LeftShoulder
				{
					OFFSET 0.000000 0.000000 0.000000
					CHANNELS 3 Zrotation Yrotation Xrotation
					JOINT LeftArm
					{
						OFFSET 2.700000 1.550000 -0.730000
						CHANNELS 3 Zrotation Yrotation Xrotation
						JOINT LeftForeArm
						{
							OFFSET 5.450000 0.000000 0.000000
							CHANNELS 3 Zrotation Yrotation Xrotation
							JOINT LeftHand
							{
								OFFSET 3.450000 0.000000 0.000000
								CHANNELS 3 Zrotation Yrotation Xrotation
								JOINT LeftHandIndex1
								{
									OFFSET 0.750000 0.000000 0.000000
									CHANNELS 3 Zrotation Yrotation Xrotation
									End Site
									{
										OFFSET 0.000000 0.000000 0.000000
									}
								}
							}
						}
					}
				}
				JOINT RightShoulder
				{
					OFFSET 0.000000 0.000000 0.000000
					CHANNELS 3 Zrotation Yrotation Xrotation
					JOINT RightArm
					{
						OFFSET -2.700000 1.550000 -0.730000
						CHANNELS 3 Zrotation Yrotation Xrotation
						JOINT RightForeArm
						{
							OFFSET -5.450000 0.000000 0.000000
							CHANNELS 3 Zrotation Yrotation Xrotation
							JOINT RightHand
							{
								OFFSET -3.450000 0.000000 0.000000
								CHANNELS 3 Zrotation Yrotation Xrotation
								JOINT RightHandIndex1
								{
									OFFSET -0.750000 0.000000 0.000000
									CHANNELS 3 Zrotation Yrotation Xrotation
									End Site
									{
										OFFSET 0.000000 0.000000 0.000000
									}
								}
							}
						}
					}
				}
			}
		}
	}
}
MOTION
Frames: 12
Frame Time: 0.016667
0.836830 17.343870 -9.774940 -2.473732 -2.818591 0.387601 -15.285050 13.063345 3.199799 -5.272587 -3.384085 -3.438936 -1.600889 11.779810 54.271442 1.078004 10.129266 1.079648 0.328310 0.320750 0.205520 18.350005 -8.878006 4.744433 3.136312 10.037212 -46.616217 6.162132 -4.097340 23.673739 -0.079500 -2.078190 3.417120 0.251990 0.020880 0.106230 -3.491820 -3.200679 -8.716298 9.183897 -4.530604 28.372223 -2.137427 -2.153434 2.154413 0.312747 -4.489043 -7.691486 -12.724002 3.684215 41.459657 -0.485070 0.928210 -14.905230 -32.730774 -15.811077 1.417125 -27.939471 -19.214963 -3.928481 -20.911564 -57.973192 9.673741 -3.546848 3.187540 0.402940 -0.066600 0.197960 0.087930 32.134024 17.768886 5.731156 37.735876 11.184815 -6.272362 8.753853 28.737227 0.866240 2.260044 -1.214635 -0.111700 0.272930 0.005680 -0.086050 
0.814080 17.032230 -9.716380 -2.936370 -1.929717 -0.188422 -15.313923 13.005019 3.150134 -4.611588 -3.165392 -1.241005 -1.928799 12.832892 56.395225 1.221074 10.694998 0.917653 0.340320 0.337920 0.216380 18.357440 -8.680290 4.919202 3.404103 10.881666 -48.132351 6.948872 -4.165948 23.623672 -0.090278 -2.067920 3.414745 0.265060 0.016570 0.110890 -3.472605 -3.275403 -8.795443 9.473601 -4.625997 28.402085 -1.680570 -2.256434 2.555162 0.274664 -4.115618 -7.695613 -12.006909 3.090598 41.523774 -0.651390 0.768870 -15.449950 -32.679322 -16.738724 1.469093 -26.793289 -20.703961 -3.515116 -20.091555 -59.648417 9.759993 -3.553208 3.177450 0.407240 -0.065620 0.206750 0.088120 32.211946 18.324020 5.786957 36.864685 12.253338 -5.899214 7.473830 28.493900 0.677355 2.250754 -1.203688 -0.110770 0.279470 0.002990 -0.088810 
0.789060 16.705410 -9.679370 -3.484053 -0.889307 -0.749271 -15.338056 12.930083 3.044300 -3.892636 -2.877167 0.832677 -1.693745 13.453142 57.977005 1.317924 11.077455 0.811115 0.350970 0.351430 0.219290 18.385228 -8.394023 5.224419 2.813317 12.299177 -50.813871 7.849429 -4.835042 27.250324 -0.180198 -2.595156 3.217251 0.276660 0.014790 0.110100 -3.484744 -3.407931 -8.888944 10.138025 -4.922498 28.938371 -1.351418 -2.456569 2.665073 0.171826 -4.198615 -7.843776 -12.088149 3.090717 41.060422 -0.401160 0.782950 -15.936580 -32.830061 -17.817492 1.574279 -25.349559 -21.866292 -3.328786 -19.199300 -61.471064 9.765932 -3.548263 3.184621 0.412550 -0.068890 0.208340 0.089810 32.593117 19.209295 6.077782 35.470795 12.897151 -5.955011 6.773726 29.528278 0.666970 2.228126 -1.216451 -0.112670 0.283340 0.001740 -0.090660 
0.769290 16.390270 -9.664780 -4.325463 0.406508 -1.217801 -15.341243 12.810418 2.900243 -2.751927 -2.765474 2.703152 -1.542602 14.049749 59.196938 1.391155 11.389411 0.718808 0.360580 0.359540 0.227050 18.439091 -8.080426 5.600374 0.783458 13.911755 -54.111365 10.864160 -6.525798 32.214076 -0.366441 -3.625518 2.839128 0.280130 0.004290 0.117300 -3.560795 -3.475689 -9.011880 11.548196 -5.471373 29.736859 -1.427105 -2.686269 2.928876 0.223257 -4.340154 -8.345722 -12.341335 2.923572 41.018532 -0.318910 0.602230 -16.610070 -32.940760 -19.676896 1.928862 -23.500506 -22.871842 -3.637432 -15.860555 -64.079046 8.316144 -3.532367 3.177589 0.425970 -0.079160 0.220350 0.085550 32.590116 20.913247 6.659042 33.866562 13.935236 -5.540743 5.846171 28.753618 0.578853 2.223615 -1.204374 -0.107780 0.283130 0.004880 -0.093850 
0.760060 16.081050 -9.667560 -5.000224 1.522193 -1.475409 -15.344843 12.659374 2.752714 -2.024859 -2.729908 4.062316 -0.961370 14.345709 60.714369 1.477276 11.653367 0.646312 0.367150 0.368920 0.226260 18.506080 -7.721605 6.024379 -1.275152 15.639083 -58.197794 13.180878 -8.321935 37.451398 -0.579084 -4.774440 2.438807 0.280180 -0.007930 0.117840 -3.645016 -3.560905 -9.150507 13.039740 -6.129808 30.663567 -1.686181 -2.916334 2.928955 0.278788 -4.729645 -8.874318 -13.146378 2.906355 40.850018 -0.461480 0.329930 -16.505590 -33.522234 -21.466975 2.152299 -21.817990 -23.776313 -4.056094 -11.648087 -64.226349 5.996220 -3.508442 3.174285 0.419030 -0.086820 0.223250 0.087180 33.031500 22.597996 7.473588 32.344908 14.085818 -6.024361 4.008129 29.934967 0.288025 2.203993 -1.237121 -0.095170 0.270230 -0.001860 -0.088710 
0.768190 15.813530 -9.701150 -6.099762 2.377031 -1.916546 -15.345863 12.482193 2.608674 -1.448804 -2.867135 4.884274 0.010788 14.580932 63.230497 1.589880 11.995719 0.539599 0.385270 0.395850 0.241110 18.580442 -7.341078 6.478907 -4.154820 17.425996 -62.872179 16.465752 -10.898876 42.989703 -0.884265 -6.205512 1.958093 0.280300 -0.045540 0.120450 -3.733813 -3.625521 -9.323136 15.125322 -6.941934 32.101829 -2.228515 -2.946794 3.302078 0.697659 -4.801697 -9.918842 -13.546688 2.850564 41.827744 -0.823700 0.232370 -16.604410 -33.903401 -24.221509 2.669500 -20.280262 -24.686966 -4.930587 -6.124422 -63.723157 2.794287 -3.461276 3.151864 0.423510 -0.108690 0.248900 0.084590 32.541738 25.242498 8.553422 30.536661 14.694240 -6.155172 1.886118 29.575481 -0.070159 2.203327 -1.246245 -0.070140 0.249100 -0.018190 -0.087210 
0.771240 15.613280 -9.754750 -7.307582 2.308006 -2.320047 -15.350725 12.334820 2.498638 -0.851137 -2.967373 5.143917 0.746533 15.096944 65.915805 1.722060 12.402140 0.426794 0.378130 0.391220 0.231090 18.635670 -7.014611 6.878356 -6.941646 19.170066 -67.051892 20.042085 -13.430827 46.987927 -1.166241 -7.439645 1.577672 0.264670 -0.056690 0.116140 -3.783624 -3.670669 -9.492609 16.929597 -7.591241 34.115162 -2.937145 -2.557092 3.409964 1.172138 -4.782013 -11.119735 -13.926430 2.646155 43.371337 -0.642090 -0.353670 -15.920560 -34.933493 -26.908472 3.129050 -18.304966 -24.793881 -6.052935 -1.722801 -62.885923 0.358500 -3.432793 3.127938 0.422200 -0.120730 0.256710 0.084090 32.604688 27.982001 9.781579 28.416614 15.165882 -6.394345 0.061188 28.616939 -0.356072 2.206062 -1.249882 -0.056590 0.240830 -0.020010 -0.078460 
0.766130 15.447470 -9.821690 -8.126920 2.710285 -2.427759 -15.389942 12.269905 2.468228 -0.399121 -3.557872 4.253863 1.646676 15.624011 69.785739 1.867427 12.950256 0.272001 0.374090 0.380970 0.240960 18.633462 -6.742717 7.117783 -9.825420 19.727565 -70.243655 23.764936 -15.489199 48.434691 -1.368259 -8.232538 1.341569 0.250640 -0.077360 0.105430 -3.708485 -3.876626 -9.634613 17.704043 -8.040661 36.235808 -3.069290 -2.098987 3.207472 1.643525 -4.595011 -12.244748 -13.862446 2.362191 44.171362 -0.540740 -0.653510 -15.905370 -35.505546 -29.109428 3.433217 -17.433025 -25.367174 -6.895459 2.141847 -61.600873 -1.705264 -3.399875 3.082773 0.438390 -0.140830 0.268230 0.076120 32.279526 30.247057 10.819270 26.401291 15.019271 -6.921712 -1.044738 28.558505 -0.481538 2.200043 -1.251529 -0.056140 0.238210 -0.024040 -0.085120 
0.763750 15.328190 -9.886720 -8.504768 2.722962 -2.088827 -15.417325 12.171308 2.503021 -0.640827 -4.103622 2.064629 2.467894 16.193342 73.872130 2.025462 13.525090 0.117208 0.362250 0.364830 0.237250 18.634013 -6.543944 7.290996 -12.051990 20.060901 -72.575463 26.395517 -16.397194 48.309327 -1.451162 -8.534323 1.260587 0.234300 -0.083530 0.099630 -3.659112 -3.961144 -9.767557 18.186067 -8.165478 37.657850 -3.279323 -1.410287 3.193429 2.020251 -4.520751 -13.521537 -14.032429 1.933615 45.009520 -0.759530 -1.244700 -15.237690 -35.904382 -31.184148 3.646247 -17.057058 -26.235480 -7.449122 4.383040 -59.171856 -2.685188 -3.382316 3.046703 0.437330 -0.147020 0.269480 0.073510 31.994868 32.587651 11.799359 25.057624 16.208936 -6.580996 -3.804044 25.276771 -0.906439 2.243446 -1.224769 -0.052700 0.234460 -0.024380 -0.082420 
0.762330 15.245540 -9.952140 -8.780253 2.750697 -1.384901 -15.443177 12.061717 2.556179 -0.448125 -4.787793 -0.647729 2.589657 17.131048 77.113614 2.169697 14.075778 -0.019491 0.330630 0.323810 0.214930 18.630812 -6.378236 7.395434 -14.105097 19.891241 -74.315755 29.089313 -16.867672 46.937374 -1.465013 -8.608533 1.251220 0.210620 -0.063540 0.094590 -3.610825 -4.023933 -9.874195 18.384343 -8.169456 38.425656 -3.110306 -0.922585 2.924075 2.185434 -4.508490 -14.188364 -13.985314 1.648655 44.982009 -0.902570 -1.606880 -13.913520 -35.945118 -31.955272 3.857816 -17.174794 -26.167712 -7.756190 4.624170 -58.776994 -2.814978 -3.382510 3.049067 0.418810 -0.132490 0.246220 0.072690 31.788273 33.659170 12.151703 24.049902 16.802074 -6.691632 -5.220761 24.269628 -1.113752 2.265975 -1.225969 -0.059640 0.229430 -0.014560 -0.076670 
0.745790 15.198770 -9.997480 -8.973813 2.562093 -0.625748 -15.460965 11.974537 2.594818 0.225172 -5.287639 -2.859593 2.523503 18.088939 79.362200 2.275311 14.507256 -0.130434 0.304570 0.294000 0.197110 18.626028 -6.267358 7.459523 -15.487303 19.851118 -75.352715 31.656464 -16.944536 44.992318 -1.452112 -8.520821 1.289063 0.193460 -0.047310 0.090470 -3.576216 -4.035652 -9.958919 18.108029 -7.901275 38.422648 -2.693333 -0.588857 2.984470 2.203196 -4.434978 -14.647066 -13.783356 1.576830 45.236296 -1.020060 -1.688130 -12.871970 -35.169214 -32.198266 4.125002 -17.754017 -25.724905 -7.978670 4.647926 -58.360705 -2.918040 -3.380673 3.046611 0.402550 -0.118500 0.227920 0.067970 31.059160 34.259871 12.090018 23.782770 17.858923 -6.349305 -5.729553 23.097989 -1.148548 2.292565 -1.205978 -0.064360 0.226910 -0.003150 -0.072970 
0.741420 15.199850 -10.020550 -8.854950 1.842056 -0.174696 -15.461849 11.922692 2.650320 0.734863 -5.329394 -3.870756 1.463004 19.347326 79.593139 2.345830 14.735729 -0.189834 0.289600 0.281100 0.186160 18.620916 -6.266254 7.430146 -15.453358 20.037582 -74.885832 32.492500 -16.349040 43.238856 -1.392094 -8.219126 1.386574 0.178670 -0.040810 0.092210 -3.573682 -3.961128 -9.994464 17.670916 -7.456731 38.243829 -2.757859 -0.246385 2.921870 2.232568 -4.129179 -14.794866 -13.239514 1.929454 46.057489 -0.811430 -1.243360 -12.068080 -34.787255 -31.993547 4.342506 -18.376247 -25.103084 -7.936124 2.832942 -57.726310 -2.028754 -3.378010 3.072711 0.392300 -0.110900 0.223770 0.064990 30.625104 34.155767 11.933414 24.617845 18.158505 -6.286989 -5.716860 23.337512 -1.177640 2.295606 -1.203938 -0.059020 0.217910 0.001570 -0.068790 
